# xmcd
#
# Track frame offsets:
# 150
# 21937
# 40000
# 62752
# 89080
# 107687
# 140137
# 153830
# 183762
# 201860
#
# Disc length: 2936 seconds
#
# Revision: 0
# Processed by: cddbd v1.4PL0 Copyright (c) Steve Scherf et al.
# Submitted via: Axialis_AX_CDPlayer 2.6
#
DISCID=850b760a
DTITLE=The Whispers - The Best Of
DYEAR=1900
DGENRE=
TTITLE0=Rock Steady
TTITLE1=Contagious
TTITLE2=Make It With You
TTITLE3=Keep On Lovin' Me
TTITLE4=Tonight
TTITLE5=I Can Make It Better
TTITLE6=In Love Forever
TTITLE7=I Want To Know Your Name (Walter And Scotty)
TTITLE8=Make Sweet Love To Me
TTITLE9=I Want 2B The 1 4 U
EXTD=
EXTT0=
EXTT1=
EXTT2=
EXTT3=
EXTT4=
EXTT5=
EXTT6=
EXTT7=
EXTT8=
EXTT9=
PLAYORDER=
